<?xml version="1.0" encoding="UTF-8"?>
<!DOCTYPE svg PUBLIC "-//W3C//DTD SVG 1.1//EN" "http://www.w3.org/Graphics/SVG/1.1/DTD/svg11.dtd">
<svg xmlns="http://www.w3.org/2000/svg" version="1.1" width="387px" height="381px" style="shape-rendering:geometricPrecision; text-rendering:geometricPrecision; image-rendering:optimizeQuality; fill-rule:evenodd; clip-rule:evenodd" xmlns:xlink="http://www.w3.org/1999/xlink">
<g><path style="opacity:1" fill="#fefefe" d="M -0.5,-0.5 C 128.5,-0.5 257.5,-0.5 386.5,-0.5C 386.5,126.5 386.5,253.5 386.5,380.5C 257.5,380.5 128.5,380.5 -0.5,380.5C -0.5,253.5 -0.5,126.5 -0.5,-0.5 Z"/></g>
<g><path style="opacity:1" fill="#16b005" d="M 188.5,16.5 C 190.497,97.1598 191.164,178.16 190.5,259.5C 173.601,257.97 162.101,249.303 156,233.5C 154.465,227.257 153.632,220.923 153.5,214.5C 153.5,175.5 153.5,136.5 153.5,97.5C 143.833,97.5 134.167,97.5 124.5,97.5C 124.168,140.003 124.501,182.337 125.5,224.5C 130.624,257.275 149.29,277.441 181.5,285C 184.482,285.498 187.482,285.665 190.5,285.5C 190.5,311.5 190.5,337.5 190.5,363.5C 144.813,338.905 99.3135,313.905 54,288.5C 49.0778,245.456 43.9111,202.456 38.5,159.5C 38.473,153.949 37.8063,148.616 36.5,143.5C 35.0735,128.426 33.4068,113.426 31.5,98.5C 31.5557,93.2688 30.889,88.2688 29.5,83.5C 29.1774,79.774 29.5108,76.1073 30.5,72.5C 82.9638,53.2345 135.63,34.5678 188.5,16.5 Z"/></g>
<g><path style="opacity:1" fill="#1e9603" d="M 188.5,16.5 C 189.209,15.596 190.209,15.2627 191.5,15.5C 191.5,96.8333 191.5,178.167 191.5,259.5C 191.167,259.5 190.833,259.5 190.5,259.5C 191.164,178.16 190.497,97.1598 188.5,16.5 Z"/></g>
<g><path style="opacity:1" fill="#268201" d="M 191.5,15.5 C 247.048,34.5714 302.714,53.2381 358.5,71.5C 349.434,143.165 340.434,214.831 331.5,286.5C 285.156,313.007 238.489,339.007 191.5,364.5C 190.893,364.376 190.56,364.043 190.5,363.5C 190.5,337.5 190.5,311.5 190.5,285.5C 223.916,285.23 246.416,269.563 258,238.5C 259.475,233.937 260.308,229.27 260.5,224.5C 261.499,182.337 261.832,140.003 261.5,97.5C 252.167,97.5 242.833,97.5 233.5,97.5C 233.5,136.167 233.5,174.833 233.5,213.5C 233.658,242.001 219.658,257.334 191.5,259.5C 191.5,178.167 191.5,96.8333 191.5,15.5 Z"/></g>
<g><path style="opacity:1" fill="#c9ecc4" d="M 29.5,83.5 C 30.889,88.2688 31.5557,93.2688 31.5,98.5C 30.111,93.7312 29.4443,88.7312 29.5,83.5 Z"/></g>
<g><path style="opacity:1" fill="#fdfefd" d="M 153.5,214.5 C 153.632,220.923 154.465,227.257 156,233.5C 162.101,249.303 173.601,257.97 190.5,259.5C 190.833,259.5 191.167,259.5 191.5,259.5C 219.658,257.334 233.658,242.001 233.5,213.5C 234.499,175.337 234.832,137.004 234.5,98.5C 243.167,98.5 251.833,98.5 260.5,98.5C 260.5,140.5 260.5,182.5 260.5,224.5C 260.308,229.27 259.475,233.937 258,238.5C 246.416,269.563 223.916,285.23 190.5,285.5C 187.482,285.665 184.482,285.498 181.5,285C 149.29,277.441 130.624,257.275 125.5,224.5C 125.5,182.5 125.5,140.5 125.5,98.5C 134.5,98.5 143.5,98.5 152.5,98.5C 152.168,137.337 152.501,176.004 153.5,214.5 Z"/></g>
<g><path style="opacity:1" fill="#8fd886" d="M 153.5,214.5 C 152.501,176.004 152.168,137.337 152.5,98.5C 143.5,98.5 134.5,98.5 125.5,98.5C 125.5,140.5 125.5,182.5 125.5,224.5C 124.501,182.337 124.168,140.003 124.5,97.5C 134.167,97.5 143.833,97.5 153.5,97.5C 153.5,136.5 153.5,175.5 153.5,214.5 Z"/></g>
<g><path style="opacity:1" fill="#d9e9d3" d="M 260.5,224.5 C 260.5,182.5 260.5,140.5 260.5,98.5C 251.833,98.5 243.167,98.5 234.5,98.5C 234.832,137.004 234.499,175.337 233.5,213.5C 233.5,174.833 233.5,136.167 233.5,97.5C 242.833,97.5 252.167,97.5 261.5,97.5C 261.832,140.003 261.499,182.337 260.5,224.5 Z"/></g>
<g><path style="opacity:1" fill="#cbecc5" d="M 36.5,143.5 C 37.8063,148.616 38.473,153.949 38.5,159.5C 37.0427,154.402 36.376,149.069 36.5,143.5 Z"/></g>
</svg>
