<?xml version="1.0" standalone="no"?>
<!DOCTYPE svg PUBLIC "-//W3C//DTD SVG 20010904//EN"
 "http://www.w3.org/TR/2001/REC-SVG-20010904/DTD/svg10.dtd">
<svg version="1.0" xmlns="http://www.w3.org/2000/svg"
 width="1200.000000pt" height="1159.000000pt" viewBox="0 0 1200.000000 1159.000000"
 preserveAspectRatio="xMidYMid meet">

<g transform="translate(0.000000,1159.000000) scale(0.100000,-0.100000)"
fill="#e41c4c" stroke="none">
<path d="M6900 11393 c-19 -2 -65 -10 -102 -19 l-67 -16 59 -49 c56 -46 130
-139 163 -204 31 -63 58 -163 64 -241 9 -121 -9 -200 -77 -344 -33 -69 -66
-151 -74 -181 -41 -158 -26 -295 49 -443 l45 -91 -5 76 c-7 101 9 240 39 329
56 163 160 288 381 456 66 50 142 115 169 144 l49 52 -7 56 c-13 113 -84 221
-211 322 -85 67 -175 113 -261 134 -67 16 -162 25 -214 19z"/>
<path d="M7886 11214 c-3 -9 -6 -43 -6 -77 0 -78 -38 -203 -87 -286 -66 -110
-145 -186 -298 -286 -163 -107 -227 -162 -288 -248 -56 -79 -71 -108 -103
-204 -46 -141 -44 -331 7 -467 10 -28 17 -52 14 -54 -2 -2 -151 52 -330 122
-347 134 -395 150 -691 220 -391 94 -715 135 -1125 143 -461 9 -878 -31 -1305
-127 -251 -56 -317 -81 -634 -239 -318 -159 -412 -231 -741 -561 -332 -333
-481 -446 -735 -559 -181 -81 -451 -161 -609 -180 -255 -32 -452 -169 -579
-403 -69 -127 -113 -334 -93 -442 9 -54 41 -121 81 -175 40 -54 216 -198 287
-236 l67 -35 17 -70 c21 -84 78 -200 139 -279 76 -98 219 -196 346 -236 l55
-17 0 -157 c0 -170 6 -211 32 -211 25 0 93 79 181 210 l80 117 -5 -231 c-5
-241 0 -286 34 -286 30 0 135 121 237 273 54 81 106 149 115 151 49 16 309 57
435 71 275 29 658 16 929 -30 453 -78 906 -259 1292 -516 795 -530 1318 -1349
1475 -2311 23 -142 25 -180 5 -127 -71 194 -265 343 -487 375 -85 11 -89 8
-158 -133 -87 -181 -175 -309 -297 -430 -56 -57 -106 -103 -110 -103 -5 0 -8
80 -8 178 0 163 -19 372 -34 372 -3 0 -23 -53 -44 -118 -60 -185 -153 -367
-270 -526 l-51 -69 -100 6 c-128 8 -196 26 -321 87 -146 71 -262 178 -312 287
-54 117 -52 227 6 348 43 91 55 133 55 211 1 122 -48 170 -218 214 -285 73
-591 -64 -750 -336 -19 -34 -50 -104 -67 -155 -29 -85 -33 -108 -37 -244 -3
-111 0 -175 12 -245 34 -194 126 -414 248 -592 65 -95 193 -232 246 -264 41
-24 40 -32 -5 -40 -97 -16 -254 -54 -307 -74 l-59 -23 24 -18 c38 -29 297
-154 379 -184 157 -56 520 -154 635 -172 173 -26 624 -26 780 0 620 103 1140
367 1560 792 388 393 667 921 760 1440 10 55 21 103 25 108 7 8 21 -60 46
-218 21 -132 29 -436 15 -598 -70 -835 -494 -1584 -1170 -2067 -55 -39 -99
-75 -96 -79 5 -9 76 0 260 34 364 67 720 169 1049 301 60 24 111 42 113 40 8
-7 -238 -305 -348 -422 -380 -404 -789 -714 -1284 -971 -88 -45 -155 -83 -149
-83 6 0 78 7 160 16 848 88 1630 400 2325 925 471 357 904 845 1189 1338 29
51 55 89 57 87 7 -6 -30 -181 -73 -346 -130 -501 -354 -999 -644 -1430 -56
-84 -56 -85 -4 -50 201 137 420 318 613 505 663 645 1119 1486 1305 2408 14
71 26 137 26 148 0 10 5 19 10 19 6 0 10 -4 10 -8 0 -5 9 -57 20 -118 61 -329
88 -725 71 -1044 -6 -112 -9 -205 -8 -206 1 -2 48 65 103 149 479 721 744
1461 826 2302 16 165 16 660 0 830 -62 654 -231 1281 -514 1905 -259 572 -634
1157 -979 1524 l-84 89 -21 -149 c-12 -82 -33 -194 -47 -249 -142 -545 -539
-1026 -1052 -1275 -165 -80 -233 -105 -391 -146 -324 -83 -677 -84 -1000 -2
-89 22 -108 38 -46 38 58 0 244 36 357 68 553 159 1003 536 1250 1047 181 376
238 759 174 1175 -24 154 -84 351 -158 514 -111 245 -327 522 -521 670 -237
181 -453 312 -612 371 -57 21 -67 22 -72 9z"/>
</g>
</svg>
