<?xml version="1.0" standalone="no"?>
<!DOCTYPE svg PUBLIC "-//W3C//DTD SVG 20010904//EN"
 "http://www.w3.org/TR/2001/REC-SVG-20010904/DTD/svg10.dtd">
<svg version="1.0" xmlns="http://www.w3.org/2000/svg"
 width="512.000000pt" height="512.000000pt" viewBox="0 0 512.000000 512.000000"
 preserveAspectRatio="xMidYMid meet">

<g transform="translate(0.000000,512.000000) scale(0.100000,-0.100000)"
fill="#000000" stroke="none">
<path d="M2390 5093 c-579 -20 -1059 -211 -1302 -517 -21 -27 -73 -73 -116
-104 -473 -338 -805 -848 -938 -1439 -22 -95 -27 -145 -28 -253 0 -121 3 -148
32 -261 29 -115 33 -147 42 -365 15 -343 55 -525 166 -749 40 -80 48 -109 74
-260 66 -389 136 -526 331 -650 41 -26 99 -72 129 -101 70 -68 324 -284 328
-280 1 2 -22 88 -53 191 -214 716 -306 1297 -308 1944 l-1 264 -109 -113 c-60
-63 -116 -128 -123 -145 -7 -17 -18 -62 -24 -98 -9 -50 -17 -70 -33 -78 -18
-10 -27 -3 -83 57 -86 96 -102 143 -85 258 15 98 10 152 -26 263 -18 58 -26
109 -30 198 -5 108 -3 131 21 222 72 278 212 553 413 811 84 108 260 290 369
383 95 81 66 71 634 223 543 146 643 162 947 153 240 -7 404 -35 626 -109 106
-35 260 -103 335 -147 70 -41 209 -81 307 -88 78 -5 81 -6 154 -61 340 -258
650 -689 780 -1087 74 -227 77 -337 16 -520 -37 -111 -44 -190 -25 -285 12
-66 -4 -133 -53 -216 l-44 -73 -34 23 c-29 20 -37 34 -48 84 -7 33 -22 74 -32
91 -16 27 -96 91 -177 143 l-27 17 0 -282 c-1 -293 -9 -413 -51 -757 -37 -306
-128 -831 -189 -1094 -8 -33 -12 -62 -10 -65 8 -7 224 127 321 200 264 198
360 391 389 784 5 75 14 106 50 192 76 177 126 357 142 503 3 32 0 138 -6 236
-14 201 -7 284 33 394 77 213 51 441 -90 807 -154 398 -448 791 -809 1082 -44
36 -116 99 -160 140 -331 313 -810 505 -1315 526 -69 3 -150 7 -180 8 -30 1
-89 1 -130 0z"/>
<path d="M1003 2665 c-49 -21 -130 -102 -145 -143 -17 -49 -17 -483 0 -652 41
-409 119 -844 237 -1325 63 -259 83 -319 125 -380 60 -87 174 -126 237 -79 61
45 89 110 121 279 21 112 23 575 4 790 -70 767 -212 1308 -387 1474 -51 48
-57 51 -107 51 -29 -1 -68 -7 -85 -15z"/>
<path d="M3930 2626 c-208 -141 -363 -892 -364 -1761 0 -417 22 -593 94 -736
52 -102 131 -129 223 -76 97 57 123 122 201 504 155 755 217 1463 165 1873
l-12 90 -53 50 c-30 28 -69 57 -89 65 -54 23 -124 19 -165 -9z"/>
</g>
</svg>
