<?xml version="1.0" standalone="no"?>
<!DOCTYPE svg PUBLIC "-//W3C//DTD SVG 20010904//EN"
 "http://www.w3.org/TR/2001/REC-SVG-20010904/DTD/svg10.dtd">
<svg version="1.0" xmlns="http://www.w3.org/2000/svg"
 width="500.000000pt" height="500.000000pt" viewBox="0 0 500.000000 500.000000"
 preserveAspectRatio="xMidYMid meet">

<g transform="translate(0.000000,500.000000) scale(0.100000,-0.100000)"
fill="#000000" stroke="none">
<path d="M940 4237 l0 -264 723 -6 c750 -7 880 -13 984 -46 214 -69 441 -245
581 -452 115 -171 182 -395 182 -609 0 -204 -61 -413 -169 -580 -88 -136 -226
-280 -322 -335 -189 -108 -294 -152 -389 -162 l-57 -6 -6 243 c-4 134 -7 558
-7 942 l0 698 -270 0 -270 0 0 -956 0 -955 -208 3 c-163 2 -213 6 -226 17 -16
14 -17 64 -14 725 1 391 -1 822 -6 959 l-8 247 -259 0 -259 0 0 -1235 0 -1235
488 -2 487 -3 3 -423 2 -422 965 0 965 0 0 258 0 259 -686 6 c-378 3 -689 9
-692 12 -3 3 -8 73 -10 155 l-4 149 23 5 c13 2 65 12 114 21 250 46 456 132
645 269 357 259 600 627 666 1009 24 140 30 474 10 622 -33 246 -128 471 -295
695 -60 81 -248 274 -303 312 -179 121 -250 165 -330 203 -288 136 -373 145
-1354 145 l-694 0 0 -263z"/>
</g>
</svg>
